<svg xmlns="http://www.w3.org/2000/svg" viewBox="0 0 480.07 458.06"><defs><style>.cls-1{fill:#48c;}.cls-2{fill:#0e3149;}</style></defs><title>Dollar logo</title><g id="Layer_2" data-name="Layer 2"><polygon points="479.96 424.24 397.82 458.06 301.18 458.06 301.18 414.57 317.29 52.19 354.33 0.65 479.96 8.7 479.96 126.28 449.36 148.82 479.96 274.45 449.36 298.61 479.96 424.24"/><polygon points="326.95 424.24 244.81 458.06 148.18 458.06 148.18 414.57 164.28 52.19 201.32 0.65 326.95 8.7 326.95 424.24"/><polygon points="170.72 424.24 82.14 458.06 0 458.06 1.61 52.19 43.49 0.65 164.28 8.7 170.72 424.24"/><rect class="cls-1" x="46.27" width="125.63" height="125.63"/><rect class="cls-1" x="201.32" y="0.65" width="125.63" height="125.63"/><rect class="cls-1" x="354.33" y="0.65" width="125.63" height="125.63"/><rect class="cls-1" x="45.1" y="148.83" width="125.63" height="125.63"/><rect class="cls-1" x="201.42" y="148.98" width="125.63" height="125.63"/><path class="cls-2" d="M532.83,472.79h14.08l17.44,34.4,17.28-34.4h14v56H584.28V491l-15.92,32.16h-8.16l-16-32.16V528.8H532.83Z" transform="translate(-300 -289)"/><rect class="cls-1" x="354.33" y="148.83" width="125.63" height="125.63"/><rect class="cls-1" x="45.1" y="298.61" width="125.63" height="125.63"/><rect class="cls-1" x="201.32" y="298.61" width="125.63" height="125.63"/><rect class="cls-1" x="354.44" y="298.77" width="125.63" height="125.63"/><path class="cls-2" d="M695.49,622.58h42.64v10.48h-30v12.16h27V655.7h-27v12.4H739v10.48H695.49Z" transform="translate(-300 -289)"/><path class="cls-2" d="M425.6,327.57A11.87,11.87,0,0,1,431,337.81a12.28,12.28,0,0,1-2.6,7.8,13,13,0,0,1-7.08,4.52A13.72,13.72,0,0,1,433,364.29a13.33,13.33,0,0,1-5.68,11.36q-5.68,4.16-15.44,4.16H385.2v-56H411Q420.24,323.81,425.6,327.57ZM416,344.73a5.57,5.57,0,0,0,2-4.6,5.37,5.37,0,0,0-2-4.48,8.61,8.61,0,0,0-5.64-1.52H397.84v12.24h12.48A8.77,8.77,0,0,0,416,344.73Zm1.4,23a5.77,5.77,0,0,0,2.56-5,5.53,5.53,0,0,0-2.56-4.8,11.9,11.9,0,0,0-7-1.68H397.84V369.5h12.48A12.07,12.07,0,0,0,417.36,367.7Z" transform="translate(-300 -289)"/></g></svg>